Coordinates
version=1
nRows=12
nColumns=33
inDegrees=yes

Units are S.I. units (second, meters, Newtons, ...)
Angles are in degrees.

endheader
time	ground_thorax_rot_x	ground_thorax_rot_y	ground_thorax_rot_z	ground_thorax_tx	ground_thorax_ty	ground_thorax_tz	clav_prot_r	clav_elev_r	scapula_abduction_r	scapula_elevation_r	scapula_upward_rot_r	scapula_winging_r	shoulder_elv_r	plane_of_elev_r	axial_rot_r	elbow_flexion_r	pro_sup_r	wrist_flex_r	wrist_dev_r	clav_prot_l	clav_elev_l	scapula_abduction_l	scapula_elevation_l	scapula_upward_rot_l	scapula_winging_l	shoulder_elv_l	plane_of_elev_l	axial_rot_l	elbow_flexion_l	pro_sup_l	wrist_flex_l	wrist_dev_l	
2.0000	2.404951	-0.927364	-13.377776	-0.038161	1.048240	0.001086	-12.298496	-9.754148	-12.146471	-2.954439	4.834894	1.466865	52.607313	-46.777792	54.794282	56.372258	-0.301802	14.410963	9.934129	-7.995143	-6.689978	8.354234	-3.027377	-6.757548	-2.670936	58.040395	-50.866316	-40.865595	61.994470	2.207479	7.226827	-20.679546	
2.0100	2.505635	-0.820673	-13.350914	-0.037764	1.048070	0.001175	-12.307308	-9.610836	-12.170680	-2.835551	4.865676	1.402955	52.490571	-46.908919	54.675573	56.532016	-0.329111	14.526637	9.818811	-7.908822	-6.681971	8.189444	-3.022936	-6.719064	-2.632070	57.898404	-50.918882	-41.032098	62.031828	2.268091	7.262576	-20.789860	
2.0200	2.607123	-0.709301	-13.325953	-0.037375	1.047865	0.001272	-12.319780	-9.457604	-12.197454	-2.711444	4.907520	1.332729	52.364549	-47.044418	54.539304	56.718996	-0.363769	14.650973	9.687334	-7.819961	-6.672749	8.016252	-3.015321	-6.668683	-2.588997	57.754536	-50.973359	-41.191274	62.073903	2.328376	7.289685	-20.906550	
2.0300	2.659650	-0.649157	-13.327073	-0.036937	1.047749	0.001361	-12.332817	-9.379062	-12.220443	-2.649902	4.934202	1.296892	52.255298	-47.117371	54.445545	56.870732	-0.396138	14.726952	9.591485	-7.772912	-6.673156	7.925678	-3.008724	-6.648358	-2.569194	57.647885	-51.013532	-41.260952	62.111282	2.356478	7.282723	-20.975984	
2.0400	2.683806	-0.616037	-13.348342	-0.036478	1.047661	0.001454	-12.348535	-9.338036	-12.241755	-2.622570	4.961199	1.276889	52.147047	-47.156510	54.361112	57.024139	-0.435208	14.778483	9.499903	-7.748725	-6.680236	7.877228	-2.998468	-6.636557	-2.560504	57.560812	-51.044272	-41.266279	62.149105	2.363669	7.242396	-21.020929	
2.0500	2.686615	-0.604347	-13.383367	-0.036012	1.047612	0.001542	-12.363865	-9.329633	-12.257040	-2.624761	4.988261	1.270237	52.041783	-47.166681	54.285385	57.171433	-0.480077	14.804614	9.409988	-7.741564	-6.694381	7.860595	-2.984356	-6.633124	-2.561111	57.489877	-51.063443	-41.218474	62.185220	2.353985	7.169748	-21.043942	
2.0600	2.680497	-0.602567	-13.437022	-0.035549	1.047562	0.001637	-12.379667	-9.334535	-12.265189	-2.643014	5.027060	1.266664	51.926378	-47.164595	54.193614	57.333916	-0.540441	14.813575	9.293886	-7.739649	-6.715754	7.851311	-2.962807	-6.627848	-2.564718	57.419258	-51.072323	-41.122954	62.225973	2.331645	7.051846	-21.057481	
2.0700	2.676314	-0.602290	-13.494419	-0.035112	1.047523	0.001729	-12.390732	-9.339684	-12.259536	-2.665192	5.077586	1.259793	51.799814	-47.161878	54.084515	57.500189	-0.613439	14.805687	9.145970	-7.729040	-6.741478	7.825312	-2.936981	-6.620935	-2.565937	57.341583	-51.074110	-41.007942	62.263945	2.308336	6.892143	-21.069008	
2.0800	2.673312	-0.603880	-13.554749	-0.034701	1.047496	0.001823	-12.396654	-9.344025	-12.239798	-2.690036	5.138814	1.249452	51.660457	-47.159686	53.959677	57.668069	-0.697772	14.778727	8.965894	-7.708578	-6.770241	7.781150	-2.908550	-6.613559	-2.564442	57.256478	-51.070534	-40.875944	62.299312	2.286625	6.688496	-21.079347	
2.0900	2.671007	-0.607580	-13.609846	-0.034330	1.047501	0.001913	-12.390544	-9.345062	-12.194817	-2.714786	5.210411	1.233411	51.497010	-47.161991	53.820688	57.821988	-0.793282	14.711163	8.737592	-7.667338	-6.798526	7.702525	-2.883800	-6.612925	-2.557092	57.158927	-51.066130	-40.732259	62.326798	2.278327	6.410594	-21.089955	
2.1000	2.668389	-0.611444	-13.661137	-0.033990	1.047517	0.002004	-12.376638	-9.341147	-12.133106	-2.737496	5.290327	1.212160	51.314910	-47.168237	53.671342	57.968838	-0.895012	14.613677	8.473810	-7.611481	-6.824495	7.599095	-2.862595	-6.614758	-2.544628	57.053820	-51.061465	-40.580560	62.354349	2.282825	6.076785	-21.103013	
2.1100	2.662083	-0.617212	-13.698537	-0.033682	1.047547	0.002094	-12.355607	-9.331546	-12.059482	-2.755166	5.371631	1.186920	51.123932	-47.174380	53.527977	58.104675	-0.990480	14.493822	8.198588	-7.543701	-6.843089	7.476656	-2.849584	-6.619418	-2.526649	56.952275	-51.059394	-40.440683	62.380048	2.306468	5.713546	-21.117992	
